<svg width="412" height="412" viewBox="0 0 412 412" fill="none" xmlns="http://www.w3.org/2000/svg">
<path d="M0 206C0 92.2293 92.2293 0 206 0C319.771 0 412 92.2293 412 206C412 319.771 319.771 412 206 412C92.2293 412 0 319.771 0 206Z" fill="white"/>
<path d="M184 84.5C184 72.0736 194.074 62 206.5 62C218.926 62 229 72.0736 229 84.5V320.5C229 332.926 218.926 343 206.5 343C194.074 343 184 332.926 184 320.5V84.5Z" fill="#74C5E1"/>
<path d="M292.686 120.25C303.448 114.037 317.209 117.724 323.422 128.486C329.635 139.247 325.948 153.008 315.186 159.221L225.986 210.721C215.224 216.934 201.463 213.247 195.25 202.486C189.037 191.724 192.724 177.963 203.486 171.75L292.686 120.25Z" fill="#74C5E1"/>
<path d="M315.186 245.75C325.948 251.963 329.635 265.724 323.422 276.486C317.209 287.247 303.448 290.934 292.686 284.721L203.486 233.221C192.724 227.008 189.037 213.247 195.25 202.486C201.463 191.724 215.224 188.037 225.986 194.25L315.186 245.75Z" fill="#74C5E1"/>
<path d="M119.986 124.25C109.224 118.037 95.4632 121.724 89.25 132.486C83.0368 143.247 86.724 157.008 97.4856 163.221L132.127 183.221C142.888 189.434 156.649 185.747 162.862 174.986C169.075 164.224 165.388 150.463 154.627 144.25L119.986 124.25Z" fill="#74C5E1"/>
<path d="M97.4856 249.75C86.724 255.963 83.0368 269.724 89.25 280.486C95.4632 291.247 109.224 294.934 119.986 288.721L154.627 268.721C165.388 262.508 169.075 248.747 162.862 237.986C156.649 227.224 142.888 223.537 132.127 229.75L97.4856 249.75Z" fill="#74C5E1"/>
</svg>
